<svg id="Layer_1" data-name="Layer 1" xmlns="http://www.w3.org/2000/svg" xmlns:xlink="http://www.w3.org/1999/xlink" viewBox="0 0 512 512"><defs><linearGradient id="linear-gradient" x1="256" x2="256" y2="512" gradientUnits="userSpaceOnUse"><stop offset="0" stop-color="#e9ebf5"/><stop offset="0.76" stop-color="#b0c7e1"/><stop offset="1" stop-color="#7697c6"/></linearGradient><linearGradient id="linear-gradient-2" x1="271.16" y1="396.82" x2="271.16" y2="125.12" gradientUnits="userSpaceOnUse"><stop offset="0" stop-color="#000013"/><stop offset="1" stop-color="#005c92"/></linearGradient></defs><title>shopping_cart</title><path d="M256,512c141,0,256-115,256-256S397,0,256,0,0,115,0,256,115,512,256,512Z" fill-rule="evenodd" fill="url(#linear-gradient)"/><path d="M122.09,167.05H318.78c8.09,0,14.63.77,19.85,2.29l32-25.92a30.24,30.24,0,0,0-.66,6.26A29.66,29.66,0,0,0,380.13,172l-23.59,19.08c.52,6-.14,13-1.58,21.12l-15,84.55c-2.21,14.34-4.7,24.46-8.9,31.57a39.78,39.78,0,0,0-57.71,16.2h-74.7a39.78,39.78,0,0,0-54.31-18.2c-3.38-5.66-6.28-12.87-9.65-22L97.18,203.27c-6.25-16.87,2.2-36.22,24.91-36.22ZM399.82,137.2a11.56,11.56,0,1,1-11.56,11.56,11.56,11.56,0,0,1,11.56-11.56Zm-.3-12.08A24.55,24.55,0,1,0,424,149.67a24.49,24.49,0,0,0-24.44-24.55ZM309.26,326.94A34.94,34.94,0,1,0,344,361.89a34.88,34.88,0,0,0-34.78-34.95Zm0,16.58a18.36,18.36,0,1,0,18.27,18.36,18.33,18.33,0,0,0-18.27-18.36ZM162.68,326.94a34.94,34.94,0,1,0,34.79,34.95,34.88,34.88,0,0,0-34.79-34.95Zm0,16.58A18.36,18.36,0,1,0,181,361.89a18.32,18.32,0,0,0-18.29-18.36ZM143.12,194.14c-7.44,0-13.53,5.38-13.53,11.95h0c0,6.56,6.09,11.93,13.53,11.93H318.2c7.44,0,13.53-5.37,13.53-11.93h0c0-6.57-6.09-11.95-13.53-11.95Zm19,45.7c-7.43,0-13.52,5.38-13.52,11.94h0c0,6.57,6.09,11.94,13.52,11.94H306.68c7.45,0,13.53-5.38,13.53-11.94h0c0-6.56-6.08-11.94-13.53-11.94Zm14.4,47.43c-7.44,0-13.54,5.38-13.54,11.95h0c0,6.56,6.1,11.93,13.54,11.93H295.74c7.44,0,13.53-5.37,13.53-11.93h0c0-6.57-6.08-11.95-13.53-11.95Z" fill="#fff" fill-rule="evenodd"/><path d="M133.68,167.05H330.36c8.09,0,14.63.77,19.85,2.29l32-25.92a30.73,30.73,0,0,0-.66,6.26A29.66,29.66,0,0,0,391.71,172l-23.59,19.08c.53,6-.14,13-1.57,21.12l-15,84.55c-2.21,14.34-4.7,24.46-8.9,31.57a39.78,39.78,0,0,0-57.71,16.2H210.21a39.87,39.87,0,0,0-35.94-22.7,39.44,39.44,0,0,0-18.36,4.5c-3.39-5.66-6.29-12.87-9.65-22L108.76,203.27c-6.25-16.87,2.21-36.22,24.92-36.22ZM411.41,137.2a11.56,11.56,0,1,1-11.57,11.56,11.56,11.56,0,0,1,11.57-11.56Zm-.3-12.08a24.55,24.55,0,1,0,24.44,24.55,24.49,24.49,0,0,0-24.44-24.55ZM320.85,326.94a34.94,34.94,0,1,0,34.79,34.95,34.87,34.87,0,0,0-34.79-34.95Zm0,16.58a18.36,18.36,0,1,0,18.29,18.36,18.32,18.32,0,0,0-18.29-18.36ZM174.27,326.94a34.94,34.94,0,1,0,34.79,34.95,34.88,34.88,0,0,0-34.79-34.95Zm0,16.58a18.36,18.36,0,1,0,18.28,18.36,18.32,18.32,0,0,0-18.28-18.36ZM154.71,194.14c-7.44,0-13.53,5.38-13.53,11.95h0c0,6.56,6.09,11.93,13.53,11.93H329.79c7.43,0,13.52-5.37,13.52-11.93h0c0-6.57-6.09-11.95-13.52-11.95Zm19,45.7c-7.43,0-13.52,5.38-13.52,11.94h0c0,6.57,6.09,11.94,13.52,11.94H318.27c7.45,0,13.54-5.38,13.54-11.94h0c0-6.56-6.09-11.94-13.54-11.94Zm14.39,47.43c-7.43,0-13.53,5.38-13.53,11.95h0c0,6.56,6.11,11.93,13.53,11.93H307.33c7.44,0,13.53-5.37,13.53-11.93h0c0-6.57-6.08-11.95-13.53-11.95Z" fill-rule="evenodd" fill="url(#linear-gradient-2)"/></svg>